<svg xmlns="http://www.w3.org/2000/svg" viewBox="0 0 100 100">
  <!-- Simple QR code icon -->
  <rect width="100" height="100" fill="#A8C4A0" rx="8"/>

  <!-- QR code pattern in white -->
  <!-- Top left corner -->
  <rect x="10" y="10" width="30" height="30" fill="white" rx="2"/>
  <rect x="15" y="15" width="20" height="20" fill="#A8C4A0" rx="1"/>
  <rect x="20" y="20" width="10" height="10" fill="white"/>

  <!-- Top right corner -->
  <rect x="60" y="10" width="30" height="30" fill="white" rx="2"/>
  <rect x="65" y="15" width="20" height="20" fill="#A8C4A0" rx="1"/>
  <rect x="70" y="20" width="10" height="10" fill="white"/>

  <!-- Bottom left corner -->
  <rect x="10" y="60" width="30" height="30" fill="white" rx="2"/>
  <rect x="15" y="65" width="20" height="20" fill="#A8C4A0" rx="1"/>
  <rect x="20" y="70" width="10" height="10" fill="white"/>

  <!-- Pattern dots -->
  <rect x="50" y="50" width="8" height="8" fill="white" rx="1"/>
  <rect x="62" y="50" width="8" height="8" fill="white" rx="1"/>
  <rect x="74" y="50" width="8" height="8" fill="white" rx="1"/>
  <rect x="50" y="62" width="8" height="8" fill="white" rx="1"/>
  <rect x="62" y="62" width="8" height="8" fill="white" rx="1"/>
  <rect x="74" y="62" width="8" height="8" fill="white" rx="1"/>
  <rect x="50" y="74" width="8" height="8" fill="white" rx="1"/>
  <rect x="62" y="74" width="8" height="8" fill="white" rx="1"/>
  <rect x="74" y="74" width="8" height="8" fill="white" rx="1"/>

  <rect x="50" y="10" width="6" height="6" fill="white" rx="1"/>
  <rect x="50" y="20" width="6" height="6" fill="white" rx="1"/>
  <rect x="50" y="30" width="6" height="6" fill="white" rx="1"/>

  <rect x="10" y="50" width="6" height="6" fill="white" rx="1"/>
  <rect x="20" y="50" width="6" height="6" fill="white" rx="1"/>
  <rect x="30" y="50" width="6" height="6" fill="white" rx="1"/>
</svg>
